<svg class="svg-icon" style="width: 1em;height: 1em;vertical-align: middle;fill: currentColor;overflow: hidden;" viewBox="0 0 1024 1024" version="1.1" xmlns="http://www.w3.org/2000/svg"><path d="M672 544h64v288h-64zM672 416h64v64h-64z"  /><path d="M816 64H208c-61.8 0-112 50.2-112 112v672c0 61.8 50.2 112 112 112h608c61.8 0 112-50.2 112-112V176c0-61.8-50.2-112-112-112z m48 784c0 26.5-21.5 48-48 48H208c-26.5 0-48-21.5-48-48V176c0-26.5 21.5-48 48-48h608c26.5 0 48 21.5 48 48v672z"  /><path d="M608 192H256c-17.7 0-32 14.3-32 32s14.3 32 32 32h352c17.7 0 32-14.3 32-32s-14.3-32-32-32zM512 352H256c-17.7 0-32 14.3-32 32s14.3 32 32 32h256c17.7 0 32-14.3 32-32s-14.3-32-32-32zM480 512H256c-17.7 0-32 14.3-32 32s14.3 32 32 32h224c17.7 0 32-14.3 32-32s-14.3-32-32-32z"  /></svg>